<svg width="14" height="14" viewBox="0 0 14 14" fill="none" xmlns="http://www.w3.org/2000/svg">
<path fill-rule="evenodd" clip-rule="evenodd" d="M2.77344 7.00016C2.77344 4.66446 4.6669 2.771 7.0026 2.771C9.33831 2.771 11.2318 4.66446 11.2318 7.00016C11.2318 7.01981 11.2331 7.03915 11.2356 7.05811C11.2337 7.07639 11.233 7.09499 11.2334 7.11385C11.237 7.26234 11.218 7.49275 11.1692 7.71293C11.116 7.95282 11.0469 8.09065 11.0064 8.13315C10.8302 8.31794 10.5879 8.42521 10.3327 8.43135C10.0775 8.43749 9.83036 8.34201 9.64557 8.1659C9.52474 8.05075 9.4901 7.88177 9.48065 7.48908L9.41329 4.69017C9.40747 4.44862 9.20694 4.25751 8.96539 4.26333C8.72383 4.26914 8.53273 4.46967 8.53854 4.71123L8.54827 5.11527C8.12762 4.76992 7.58932 4.56262 7.00259 4.56262C5.6564 4.56262 4.56509 5.65392 4.56509 7.00012C4.56509 8.34631 5.6564 9.43762 7.00259 9.43762C7.746 9.43762 8.41168 9.10481 8.85877 8.58007C8.9089 8.65637 8.96923 8.73006 9.04192 8.79932C9.39471 9.13553 9.8666 9.31782 10.3538 9.3061C10.841 9.29437 11.3036 9.08959 11.6398 8.7368C11.8554 8.51051 11.9646 8.16811 12.0235 7.90217C12.0868 7.61652 12.1135 7.31549 12.1082 7.09279C12.1078 7.07675 12.1065 7.06093 12.1045 7.04538C12.106 7.03051 12.1068 7.01543 12.1068 7.00016C12.1068 4.18121 9.82156 1.896 7.0026 1.896C4.18365 1.896 1.89844 4.18121 1.89844 7.00016C1.89844 9.81912 4.18365 12.1043 7.0026 12.1043C8.19437 12.1043 9.29182 11.6953 10.1606 11.0104C10.3503 10.8608 10.3828 10.5857 10.2332 10.3959C10.0836 10.2062 9.80853 10.1737 9.61879 10.3233C8.89889 10.8909 7.99088 11.2293 7.0026 11.2293C4.6669 11.2293 2.77344 9.33587 2.77344 7.00016ZM7.00259 5.43762C6.13965 5.43762 5.44009 6.13717 5.44009 7.00012C5.44009 7.86306 6.13965 8.56262 7.00259 8.56262C7.86554 8.56262 8.56509 7.86306 8.56509 7.00012C8.56509 6.13717 7.86554 5.43762 7.00259 5.43762Z" fill="#272A2C"/>
</svg>
