<svg width="150" height="35" viewBox="0 0 150 35" fill="none" xmlns="http://www.w3.org/2000/svg">
<path d="M0.105318 10.3609C-0.65339 5.64065 2.82278 4.27025 6.17494 4.27025H24.3838C27.736 4.27025 30.4534 6.99714 30.4534 10.3609V32.425C30.4534 33.299 29.4111 33.7525 28.7717 33.1567L23.6414 28.3763C22.6027 27.4084 21.1177 27.0862 19.7712 27.5366V27.5366C13.983 29.4727 6.60085 29.5168 3.11809 24.5047C2.36237 23.4171 1.79595 22.1467 1.47098 20.5628L0.105318 10.3609Z" fill="#5AD37E"/>
<path d="M2.60149 6.36702C1.84278 1.64674 5.31895 0.276337 8.67111 0.276337H26.88C30.2321 0.276337 32.9496 3.00323 32.9496 6.36702V28.4311C32.9496 29.3051 31.9073 29.7586 31.2679 29.1628L26.1376 24.3824C25.0988 23.4145 23.6138 23.0923 22.2673 23.5427V23.5427C16.4791 25.4788 9.09702 25.5229 5.61426 20.5107C4.85854 19.4231 4.29212 18.1528 3.96715 16.5689L2.60149 6.36702Z" fill="#272A2C"/>
<path d="M63.9548 17.4401C63.9548 18.7572 63.7239 19.9887 63.2621 21.1347C62.8174 22.2636 62.193 23.2386 61.3891 24.0596C60.6023 24.8635 59.653 25.5049 58.5412 25.9839C57.4294 26.4457 56.2321 26.6766 54.9492 26.6766C53.6151 26.6766 52.3665 26.4371 51.2033 25.9582C50.0402 25.4793 49.0311 24.8293 48.1758 24.0083C47.3377 23.1702 46.6706 22.1866 46.1746 21.0577C45.6786 19.9288 45.4305 18.7144 45.4305 17.4145C45.4305 16.1145 45.67 14.9001 46.1489 13.7712C46.645 12.6423 47.312 11.6673 48.1502 10.8463C49.0054 10.0082 50.0146 9.34965 51.1777 8.87072C52.3408 8.39179 53.5809 8.15233 54.8979 8.15233C56.386 8.15233 57.7886 8.45166 59.1057 9.05032C60.4227 9.64898 61.5089 10.47 62.3641 11.5134L59.7727 13.8995C59.1399 13.1469 58.4044 12.5739 57.5662 12.1805C56.7452 11.7699 55.8558 11.5647 54.8979 11.5647C54.094 11.5647 53.3414 11.7186 52.6401 12.0265C51.9559 12.3173 51.3573 12.7278 50.8441 13.258C50.3481 13.7712 49.9547 14.387 49.6639 15.1053C49.3903 15.8066 49.2534 16.5763 49.2534 17.4145C49.2534 18.2526 49.3988 19.0308 49.6896 19.7492C49.9804 20.4676 50.3823 21.092 50.8955 21.6222C51.4086 22.1353 52.0158 22.5458 52.7171 22.8537C53.4355 23.1445 54.1966 23.2899 55.0006 23.2899C56.2663 23.2899 57.3524 22.9392 58.259 22.238C59.1826 21.5367 59.7556 20.6387 59.978 19.544H54.667V16.3112H63.9548V17.4401Z" fill="#5AD37E"/>
<path d="M66.2625 26.3944V13.0271H69.7775V14.4896C70.2051 13.908 70.7183 13.4719 71.3169 13.1811C71.9327 12.8732 72.6083 12.7193 73.3438 12.7193C73.6859 12.7364 73.9681 12.7706 74.1905 12.8219C74.43 12.8561 74.6352 12.9245 74.8063 13.0271V16.106C74.5497 15.9862 74.2675 15.9007 73.9596 15.8494C73.6517 15.781 73.3353 15.7468 73.0103 15.7468C72.3261 15.7468 71.6932 15.9178 71.1117 16.2599C70.5472 16.602 70.1025 17.098 69.7775 17.748V26.3944H66.2625Z" fill="#5AD37E"/>
<path d="M88.041 24.7267C87.22 25.3938 86.3733 25.8812 85.501 26.1891C84.6458 26.497 83.6879 26.6509 82.6274 26.6509C81.6182 26.6509 80.6689 26.4713 79.7795 26.1121C78.9072 25.753 78.146 25.2655 77.496 24.6497C76.8632 24.0339 76.3586 23.307 75.9823 22.4689C75.6231 21.6136 75.4435 20.6985 75.4435 19.7236C75.4435 18.7657 75.6145 17.8677 75.9566 17.0296C76.3158 16.1744 76.8033 15.4389 77.4191 14.8231C78.0348 14.1902 78.7618 13.6942 79.5999 13.335C80.4551 12.9758 81.3617 12.7962 82.3195 12.7962C83.2603 12.7962 84.1326 12.9844 84.9365 13.3607C85.7576 13.7199 86.4588 14.2159 87.0404 14.8488C87.6391 15.4816 88.1009 16.2428 88.4259 17.1322C88.768 18.0046 88.939 18.9539 88.939 19.9802V20.9038H78.9841C79.2236 21.7419 79.6854 22.4176 80.3696 22.9307C81.0538 23.4438 81.8577 23.7004 82.7814 23.7004C83.3629 23.7004 83.9103 23.6063 84.4234 23.4182C84.9365 23.23 85.3727 22.9649 85.7319 22.6228L88.041 24.7267ZM82.2426 15.6955C81.4386 15.6955 80.7459 15.9435 80.1643 16.4395C79.5828 16.9184 79.1808 17.5684 78.9585 18.3894H85.501C85.2786 17.6026 84.8681 16.9612 84.2694 16.4652C83.6879 15.952 83.0123 15.6955 82.2426 15.6955Z" fill="#5AD37E"/>
<path d="M103.175 24.7267C102.354 25.3938 101.507 25.8812 100.635 26.1891C99.7793 26.497 98.8214 26.6509 97.761 26.6509C96.7518 26.6509 95.8025 26.4713 94.913 26.1121C94.0407 25.753 93.2796 25.2655 92.6296 24.6497C91.9967 24.0339 91.4921 23.307 91.1158 22.4689C90.7566 21.6136 90.577 20.6985 90.577 19.7236C90.577 18.7657 90.7481 17.8677 91.0902 17.0296C91.4494 16.1744 91.9369 15.4389 92.5526 14.8231C93.1684 14.1902 93.8953 13.6942 94.7335 13.335C95.5887 12.9758 96.4952 12.7962 97.4531 12.7962C98.3938 12.7962 99.2662 12.9844 100.07 13.3607C100.891 13.7199 101.592 14.2159 102.174 14.8488C102.773 15.4816 103.234 16.2428 103.559 17.1322C103.902 18.0046 104.073 18.9539 104.073 19.9802V20.9038H94.1177C94.3571 21.7419 94.819 22.4176 95.5032 22.9307C96.1873 23.4438 96.9913 23.7004 97.9149 23.7004C98.4965 23.7004 99.0438 23.6063 99.5569 23.4182C100.07 23.23 100.506 22.9649 100.865 22.6228L103.175 24.7267ZM97.3761 15.6955C96.5722 15.6955 95.8795 15.9435 95.2979 16.4395C94.7163 16.9184 94.3144 17.5684 94.092 18.3894H100.635C100.412 17.6026 100.002 16.9612 99.403 16.4652C98.8214 15.952 98.1458 15.6955 97.3761 15.6955Z" fill="#5AD37E"/>
<path d="M120.286 20.0657C120.286 21.0235 120.106 21.9215 119.747 22.7596C119.388 23.5978 118.901 24.3247 118.285 24.9405C117.669 25.5562 116.934 26.0437 116.078 26.4029C115.24 26.745 114.342 26.9161 113.384 26.9161C112.717 26.9161 112.067 26.822 111.434 26.6338C110.802 26.4457 110.22 26.1806 109.69 25.8385V26.7365H106.226V8.77663L109.741 8.00693V14.4211C110.271 14.0277 110.853 13.7284 111.486 13.5232C112.136 13.3008 112.803 13.1896 113.487 13.1896C114.428 13.1896 115.309 13.3692 116.13 13.7284C116.968 14.0876 117.695 14.5751 118.31 15.1909C118.926 15.8066 119.405 16.5336 119.747 17.3717C120.106 18.2098 120.286 19.1078 120.286 20.0657ZM112.923 16.1915C112.29 16.1915 111.7 16.3027 111.152 16.525C110.605 16.7303 110.135 17.0382 109.741 17.4487V22.7083C110.117 23.0846 110.579 23.384 111.127 23.6063C111.691 23.8287 112.29 23.9399 112.923 23.9399C114.017 23.9399 114.941 23.5721 115.693 22.8366C116.446 22.084 116.822 21.1604 116.822 20.0657C116.822 18.971 116.438 18.0559 115.668 17.3204C114.915 16.5678 114 16.1915 112.923 16.1915Z" fill="#272A2C"/>
<path d="M121.922 20.0657C121.922 19.0907 122.101 18.1842 122.46 17.346C122.837 16.4908 123.341 15.7553 123.974 15.1395C124.624 14.5067 125.385 14.0106 126.258 13.6514C127.13 13.2922 128.062 13.1126 129.054 13.1126C130.046 13.1126 130.978 13.2922 131.851 13.6514C132.723 14.0106 133.476 14.5067 134.109 15.1395C134.758 15.7553 135.263 16.4908 135.622 17.346C135.999 18.1842 136.187 19.0907 136.187 20.0657C136.187 21.0406 135.999 21.9557 135.622 22.8109C135.263 23.6491 134.758 24.376 134.109 24.9918C133.476 25.6076 132.723 26.095 131.851 26.4542C130.978 26.8134 130.046 26.993 129.054 26.993C128.062 26.993 127.13 26.8134 126.258 26.4542C125.385 26.095 124.624 25.6076 123.974 24.9918C123.341 24.376 122.837 23.6491 122.46 22.8109C122.101 21.9557 121.922 21.0406 121.922 20.0657ZM129.054 23.9399C130.08 23.9399 130.953 23.5636 131.671 22.8109C132.39 22.0583 132.749 21.1433 132.749 20.0657C132.749 18.971 132.39 18.0473 131.671 17.2947C130.953 16.5421 130.08 16.1658 129.054 16.1658C128.028 16.1658 127.156 16.5421 126.437 17.2947C125.719 18.0473 125.36 18.971 125.36 20.0657C125.36 21.1433 125.719 22.0583 126.437 22.8109C127.156 23.5636 128.028 23.9399 129.054 23.9399Z" fill="#272A2C"/>
<path d="M135.658 26.7365L140.789 19.9374L135.786 13.3692H139.865L142.816 17.346L145.741 13.3692H149.692L144.766 19.8861L150 26.7365H145.895L142.739 22.4774L139.583 26.7365H135.658Z" fill="#272A2C"/>
</svg>
