<svg width="14" height="14" viewBox="0 0 14 14" fill="none" xmlns="http://www.w3.org/2000/svg">
<path fill-rule="evenodd" clip-rule="evenodd" d="M4.26173 4.52582L4.46185 6.3269L4.05688 6.35923C3.49216 6.40432 3.03103 6.82883 2.93949 7.3879C2.7285 8.67642 2.7285 9.99069 2.93949 11.2792C3.03103 11.8383 3.49216 12.2628 4.05688 12.3079L4.92962 12.3776C6.30754 12.4876 7.69204 12.4876 9.06995 12.3776L9.94269 12.3079C10.5074 12.2628 10.9685 11.8383 11.0601 11.2792C11.2711 9.99069 11.2711 8.67642 11.0601 7.3879C10.9685 6.82883 10.5074 6.40432 9.94269 6.35923L9.53767 6.3269L9.73779 4.52582C9.76138 4.3135 9.76138 4.09922 9.73779 3.8869L9.72451 3.76738C9.58364 2.49957 8.58696 1.49644 7.32008 1.34739C7.10727 1.32235 6.89225 1.32235 6.67944 1.34739C5.41256 1.49644 4.41588 2.49957 4.27501 3.76738L4.26173 3.8869C4.23814 4.09922 4.23814 4.3135 4.26173 4.52582ZM7.21784 2.2164C7.07295 2.19935 6.92656 2.19935 6.78167 2.2164C5.91914 2.31787 5.24056 3.00084 5.14466 3.86401L5.13138 3.98353C5.11492 4.13163 5.11492 4.2811 5.13138 4.4292L5.33484 6.26039C6.44365 6.18928 7.55587 6.18928 8.66467 6.26039L8.86814 4.4292C8.88459 4.2811 8.88459 4.13163 8.86814 3.98353L8.85486 3.86401C8.75895 3.00084 8.08038 2.31787 7.21784 2.2164ZM6.99977 8.45856C6.51652 8.45856 6.12477 8.85031 6.12477 9.33356C6.12477 9.81681 6.51652 10.2086 6.99977 10.2086C7.48302 10.2086 7.87477 9.81681 7.87477 9.33356C7.87477 8.85031 7.48302 8.45856 6.99977 8.45856Z" fill="#272A2C"/>
</svg>
