<svg width="14" height="14" viewBox="0 0 14 14" fill="none" xmlns="http://www.w3.org/2000/svg">
<path fill-rule="evenodd" clip-rule="evenodd" d="M4.52116 4.37516C4.52116 3.00596 5.63112 1.896 7.00033 1.896C8.36953 1.896 9.47949 3.00596 9.47949 4.37516C9.47949 5.74437 8.36953 6.85433 7.00033 6.85433C5.63112 6.85433 4.52116 5.74437 4.52116 4.37516ZM7.00033 2.771C6.11437 2.771 5.39616 3.48921 5.39616 4.37516C5.39616 5.26112 6.11437 5.97933 7.00033 5.97933C7.88628 5.97933 8.60449 5.26112 8.60449 4.37516C8.60449 3.48921 7.88628 2.771 7.00033 2.771Z" fill="#272A2C"/>
<path fill-rule="evenodd" clip-rule="evenodd" d="M4.66699 8.60433C3.94212 8.60433 3.35449 9.19196 3.35449 9.91683V10.61C3.35449 10.6205 3.36214 10.6295 3.37256 10.6312C5.77516 11.0235 8.22549 11.0235 10.6281 10.6312C10.6385 10.6295 10.6462 10.6205 10.6462 10.61V9.91683C10.6462 9.19196 10.0585 8.60433 9.33366 8.60433H9.13482C9.11944 8.60433 9.10417 8.60676 9.08955 8.61153L8.58467 8.77639C7.55519 9.11255 6.44546 9.11255 5.41598 8.77639L4.9111 8.61153C4.89648 8.60676 4.88121 8.60433 4.86583 8.60433H4.66699ZM2.47949 9.91683C2.47949 8.70871 3.45887 7.72933 4.66699 7.72933H4.86583C4.97345 7.72933 5.0804 7.74635 5.1827 7.77975L5.68758 7.94461C6.54058 8.22314 7.46007 8.22314 8.31307 7.94461L8.81795 7.77975C8.92025 7.74635 9.0272 7.72933 9.13482 7.72933H9.33366C10.5418 7.72933 11.5212 8.70871 11.5212 9.91683V10.61C11.5212 11.0494 11.2027 11.424 10.7691 11.4948C8.2731 11.9023 5.72755 11.9023 3.23157 11.4948C2.79792 11.424 2.47949 11.0494 2.47949 10.61V9.91683Z" fill="#272A2C"/>
</svg>
